<svg xmlns="http://www.w3.org/2000/svg" viewBox="0 0 400 400" role="img" aria-label="Bayad Pizza restaurant owner portrait">
  <rect width="400" height="400" rx="200" fill="#fffaf2" />
  <circle cx="200" cy="200" r="174" fill="#ffffff" />
  <path fill="#111" d="M110 178c-8-59 28-111 91-114 64-3 100 42 91 105-13-31-37-48-72-52-42-5-77 9-110 61Z" />
  <path fill="#111" d="M132 145c18-54 79-77 126-48 18 11 29 25 34 45-19-17-43-26-72-26-35 0-64 10-88 29Z" opacity=".94" />
  <path fill="#fff" stroke="#111" stroke-width="5" d="M122 177c2-36 31-66 75-68 49-3 81 26 84 68 3 42-28 80-76 83-47 3-86-33-83-83Z" />
  <path fill="#111" d="M118 221c22 28 49 40 84 39 35-1 61-16 80-44 11 80-31 130-82 132-55 2-94-48-82-127Z" />
  <path fill="#fff" d="M154 249c14 18 32 27 54 26 21-1 37-10 49-28-8 38-28 58-53 59-25 1-43-19-50-57Z" />
  <path fill="#111" d="M152 188c12-9 26-10 42-1-15 5-29 6-42 1Zm67 0c15-10 30-9 43 1-14 5-28 4-43-1Z" />
  <circle cx="176" cy="196" r="5" fill="#111" />
  <circle cx="236" cy="196" r="5" fill="#111" />
  <path fill="none" stroke="#111" stroke-linecap="round" stroke-width="5" d="M199 200c-4 13-8 25-13 36 9 7 22 7 32 0" />
  <path fill="#111" d="M147 225c21-19 42-22 63-9 20-12 39-10 59 7-17 31-38 47-64 48-25 1-45-15-58-46Z" />
  <path fill="none" stroke="#fff" stroke-linecap="round" stroke-width="6" d="M171 241c9 8 20 12 34 12 13 0 24-4 33-12" />
  <path fill="#111" d="M109 187c-14 3-19 16-14 34 4 15 12 24 23 25l-9-59Zm184 0c14 3 19 16 14 34-4 15-12 24-23 25l9-59Z" />
</svg>
